<svg width="120" height="9" viewBox="0 0 120 9" fill="none" xmlns="http://www.w3.org/2000/svg">
<path d="M0.0681819 8V0.727273H2.6108C3.11742 0.727273 3.53527 0.814867 3.86435 0.990057C4.19342 1.16288 4.43845 1.39607 4.59943 1.68963C4.76042 1.98082 4.84091 2.30398 4.84091 2.65909C4.84091 2.97159 4.78527 3.22964 4.67401 3.43324C4.5651 3.63684 4.42069 3.79782 4.24077 3.91619C4.06321 4.03456 3.87027 4.12216 3.66193 4.17898V4.25C3.88447 4.2642 4.10819 4.34233 4.3331 4.48438C4.558 4.62642 4.74621 4.83002 4.89773 5.09517C5.04924 5.36032 5.125 5.68466 5.125 6.06818C5.125 6.43277 5.04214 6.76065 4.87642 7.05185C4.7107 7.34304 4.4491 7.57386 4.09162 7.74432C3.73414 7.91477 3.26894 8 2.69602 8H0.0681819ZM0.948864 7.21875H2.69602C3.27131 7.21875 3.67969 7.10748 3.92116 6.88494C4.16501 6.66004 4.28693 6.38778 4.28693 6.06818C4.28693 5.82197 4.2242 5.5947 4.09872 5.38636C3.97325 5.17566 3.79451 5.00758 3.5625 4.8821C3.33049 4.75426 3.05587 4.69034 2.73864 4.69034H0.948864V7.21875ZM0.948864 3.9233H2.58239C2.84754 3.9233 3.08665 3.87121 3.29972 3.76705C3.51515 3.66288 3.68561 3.5161 3.81108 3.3267C3.93892 3.13731 4.00284 2.91477 4.00284 2.65909C4.00284 2.33949 3.89157 2.06842 3.66903 1.84588C3.4465 1.62098 3.09375 1.50852 2.6108 1.50852H0.948864V3.9233ZM29.7388 8L27.7502 0.727273H28.6451L30.165 6.65057H30.236L31.7843 0.727273H32.7786L34.3269 6.65057H34.3979L35.9178 0.727273H36.8127L34.824 8H33.915L32.3098 2.20455H32.253L30.6479 8H29.7388ZM72.7173 3H71.8366C71.7846 2.74669 71.6934 2.52415 71.5632 2.33239C71.4354 2.14062 71.2791 1.97964 71.0945 1.84943C70.9122 1.71686 70.7098 1.61742 70.4872 1.55114C70.2647 1.48485 70.0327 1.4517 69.7912 1.4517C69.3509 1.4517 68.9519 1.56297 68.5945 1.78551C68.2393 2.00805 67.9564 2.33594 67.7457 2.76918C67.5374 3.20241 67.4332 3.7339 67.4332 4.36364C67.4332 4.99337 67.5374 5.52486 67.7457 5.9581C67.9564 6.39134 68.2393 6.71922 68.5945 6.94176C68.9519 7.1643 69.3509 7.27557 69.7912 7.27557C70.0327 7.27557 70.2647 7.24242 70.4872 7.17614C70.7098 7.10985 70.9122 7.0116 71.0945 6.88139C71.2791 6.74882 71.4354 6.58665 71.5632 6.39489C71.6934 6.20076 71.7846 5.97822 71.8366 5.72727H72.7173C72.651 6.09896 72.5303 6.43158 72.3551 6.72514C72.1799 7.0187 71.9621 7.26847 71.7017 7.47443C71.4413 7.67803 71.1489 7.8331 70.8246 7.93963C70.5026 8.04616 70.1581 8.09943 69.7912 8.09943C69.1709 8.09943 68.6193 7.94792 68.1364 7.64489C67.6534 7.34186 67.2734 6.91098 66.9964 6.35227C66.7195 5.79356 66.581 5.13068 66.581 4.36364C66.581 3.59659 66.7195 2.93371 66.9964 2.375C67.2734 1.81629 67.6534 1.38542 68.1364 1.08239C68.6193 0.779356 69.1709 0.627841 69.7912 0.627841C70.1581 0.627841 70.5026 0.681108 70.8246 0.787642C71.1489 0.894176 71.4413 1.05043 71.7017 1.25639C71.9621 1.45999 72.1799 1.70857 72.3551 2.00213C72.5303 2.29332 72.651 2.62595 72.7173 3ZM94.5053 5.76989V2.54545H95.3434V8H94.5053V7.0767H94.4485C94.3207 7.35369 94.1218 7.58925 93.8519 7.78338C93.582 7.97514 93.2411 8.07102 92.8292 8.07102C92.4883 8.07102 92.1853 7.99645 91.9201 7.8473C91.6549 7.69579 91.4466 7.46851 91.2951 7.16548C91.1436 6.86009 91.0678 6.47538 91.0678 6.01136V2.54545H91.9059V5.95455C91.9059 6.35227 92.0172 6.66951 92.2397 6.90625C92.4646 7.14299 92.7511 7.26136 93.0991 7.26136C93.3074 7.26136 93.5193 7.2081 93.7347 7.10156C93.9525 6.99503 94.1348 6.83168 94.2816 6.61151C94.4308 6.39134 94.5053 6.1108 94.5053 5.76989ZM112.572 8V2.54545H113.41V8H112.572ZM112.998 1.63636C112.835 1.63636 112.694 1.58073 112.575 1.46946C112.459 1.35819 112.401 1.22443 112.401 1.06818C112.401 0.911932 112.459 0.778172 112.575 0.666903C112.694 0.555634 112.835 0.5 112.998 0.5C113.161 0.5 113.301 0.555634 113.417 0.666903C113.535 0.778172 113.594 0.911932 113.594 1.06818C113.594 1.22443 113.535 1.35819 113.417 1.46946C113.301 1.58073 113.161 1.63636 112.998 1.63636Z" fill="#EB85E1"/>
<path d="M7.29652 0.727273V8H6.45845V0.727273H7.29652ZM40.0123 8.11364C39.5198 8.11364 39.0878 7.99645 38.7161 7.76207C38.3468 7.5277 38.0579 7.19981 37.8496 6.77841C37.6436 6.35701 37.5407 5.86458 37.5407 5.30114C37.5407 4.73295 37.6436 4.23698 37.8496 3.81321C38.0579 3.38944 38.3468 3.06037 38.7161 2.82599C39.0878 2.59162 39.5198 2.47443 40.0123 2.47443C40.5047 2.47443 40.9355 2.59162 41.3049 2.82599C41.6766 3.06037 41.9654 3.38944 42.1713 3.81321C42.3797 4.23698 42.4838 4.73295 42.4838 5.30114C42.4838 5.86458 42.3797 6.35701 42.1713 6.77841C41.9654 7.19981 41.6766 7.5277 41.3049 7.76207C40.9355 7.99645 40.5047 8.11364 40.0123 8.11364ZM40.0123 7.3608C40.3863 7.3608 40.6941 7.26491 40.9355 7.07315C41.177 6.88139 41.3558 6.62926 41.4718 6.31676C41.5878 6.00426 41.6458 5.66572 41.6458 5.30114C41.6458 4.93655 41.5878 4.59683 41.4718 4.28196C41.3558 3.96709 41.177 3.71259 40.9355 3.51847C40.6941 3.32434 40.3863 3.22727 40.0123 3.22727C39.6382 3.22727 39.3304 3.32434 39.089 3.51847C38.8475 3.71259 38.6687 3.96709 38.5527 4.28196C38.4367 4.59683 38.3787 4.93655 38.3787 5.30114C38.3787 5.66572 38.4367 6.00426 38.5527 6.31676C38.6687 6.62926 38.8475 6.88139 39.089 7.07315C39.3304 7.26491 39.6382 7.3608 40.0123 7.3608ZM76.2427 8.11364C75.7503 8.11364 75.3182 7.99645 74.9466 7.76207C74.5772 7.5277 74.2884 7.19981 74.0801 6.77841C73.8741 6.35701 73.7711 5.86458 73.7711 5.30114C73.7711 4.73295 73.8741 4.23698 74.0801 3.81321C74.2884 3.38944 74.5772 3.06037 74.9466 2.82599C75.3182 2.59162 75.7503 2.47443 76.2427 2.47443C76.7351 2.47443 77.166 2.59162 77.5353 2.82599C77.907 3.06037 78.1958 3.38944 78.4018 3.81321C78.6101 4.23698 78.7143 4.73295 78.7143 5.30114C78.7143 5.86458 78.6101 6.35701 78.4018 6.77841C78.1958 7.19981 77.907 7.5277 77.5353 7.76207C77.166 7.99645 76.7351 8.11364 76.2427 8.11364ZM76.2427 7.3608C76.6168 7.3608 76.9245 7.26491 77.166 7.07315C77.4075 6.88139 77.5862 6.62926 77.7022 6.31676C77.8182 6.00426 77.8762 5.66572 77.8762 5.30114C77.8762 4.93655 77.8182 4.59683 77.7022 4.28196C77.5862 3.96709 77.4075 3.71259 77.166 3.51847C76.9245 3.32434 76.6168 3.22727 76.2427 3.22727C75.8687 3.22727 75.5609 3.32434 75.3194 3.51847C75.0779 3.71259 74.8992 3.96709 74.7832 4.28196C74.6672 4.59683 74.6092 4.93655 74.6092 5.30114C74.6092 5.66572 74.6672 6.00426 74.7832 6.31676C74.8992 6.62926 75.0779 6.88139 75.3194 7.07315C75.5609 7.26491 75.8687 7.3608 76.2427 7.3608ZM97.7164 0.727273V8H96.8784V0.727273H97.7164Z" fill="#3AA0A7"/>
<path d="M10.4366 8.12784C10.091 8.12784 9.77728 8.06274 9.49556 7.93253C9.21384 7.79995 8.99012 7.60938 8.8244 7.3608C8.65868 7.10985 8.57582 6.80682 8.57582 6.4517C8.57582 6.1392 8.63737 5.88589 8.76048 5.69176C8.88358 5.49527 9.04812 5.34138 9.25408 5.23011C9.46005 5.11884 9.68732 5.03598 9.9359 4.98153C10.1868 4.92472 10.439 4.87973 10.6923 4.84659C11.0237 4.80398 11.2924 4.77202 11.4984 4.75071C11.7067 4.72704 11.8583 4.68797 11.9529 4.63352C12.05 4.57907 12.0985 4.48437 12.0985 4.34943V4.32102C12.0985 3.97064 12.0027 3.69839 11.8109 3.50426C11.6215 3.31013 11.3339 3.21307 10.948 3.21307C10.5479 3.21307 10.2342 3.30066 10.0069 3.47585C9.77965 3.65104 9.61985 3.83807 9.52752 4.03693L8.73207 3.75284C8.87411 3.4214 9.06351 3.16335 9.30025 2.97869C9.53936 2.79167 9.79978 2.66146 10.0815 2.58807C10.3656 2.51231 10.6449 2.47443 10.9196 2.47443C11.0948 2.47443 11.296 2.49574 11.5233 2.53835C11.7529 2.5786 11.9743 2.66264 12.1873 2.79048C12.4028 2.91832 12.5815 3.11127 12.7235 3.36932C12.8656 3.62737 12.9366 3.97301 12.9366 4.40625V8H12.0985V7.26136H12.0559C11.9991 7.37973 11.9044 7.50639 11.7718 7.64134C11.6393 7.77628 11.4629 7.8911 11.2427 7.9858C11.0225 8.08049 10.7538 8.12784 10.4366 8.12784ZM10.5645 7.375C10.8959 7.375 11.1752 7.3099 11.4025 7.17969C11.6322 7.04948 11.805 6.88139 11.921 6.67543C12.0394 6.46946 12.0985 6.25284 12.0985 6.02557V5.25852C12.063 5.30114 11.9849 5.3402 11.8642 5.37571C11.7458 5.40885 11.6085 5.43845 11.4522 5.46449C11.2984 5.48816 11.148 5.50947 11.0012 5.52841C10.8568 5.54498 10.7396 5.55919 10.6497 5.57102C10.4319 5.59943 10.2283 5.6456 10.0389 5.70952C9.85186 5.77107 9.70034 5.86458 9.58434 5.99006C9.4707 6.11316 9.41388 6.28125 9.41388 6.49432C9.41388 6.78551 9.5216 7.00568 9.73704 7.15483C9.95484 7.30161 10.2306 7.375 10.5645 7.375ZM43.7631 8V2.54545H44.5728V3.39773H44.6438C44.7575 3.10653 44.9409 2.88045 45.1942 2.71946C45.4476 2.55611 45.7518 2.47443 46.1069 2.47443C46.4667 2.47443 46.7662 2.55611 47.0053 2.71946C47.2468 2.88045 47.435 3.10653 47.57 3.39773H47.6268C47.7665 3.116 47.976 2.89228 48.2553 2.72656C48.5347 2.55848 48.8697 2.47443 49.2603 2.47443C49.748 2.47443 50.1469 2.62713 50.457 2.93253C50.7672 3.23556 50.9222 3.70786 50.9222 4.34943V8H50.0842V4.34943C50.0842 3.94697 49.9741 3.65933 49.7539 3.48651C49.5337 3.31368 49.2745 3.22727 48.9762 3.22727C48.5927 3.22727 48.2956 3.34328 48.0849 3.57528C47.8742 3.80492 47.7688 4.09612 47.7688 4.44886V8H46.9165V4.2642C46.9165 3.95407 46.8159 3.70431 46.6147 3.51491C46.4135 3.32315 46.1542 3.22727 45.837 3.22727C45.6192 3.22727 45.4156 3.28527 45.2262 3.40128C45.0392 3.51728 44.8877 3.67827 44.7717 3.88423C44.658 4.08783 44.6012 4.32339 44.6012 4.59091V8H43.7631ZM80.8317 4.71875V8H79.9936V2.54545H80.8033V3.39773H80.8743C81.0021 3.12074 81.1963 2.8982 81.4567 2.73011C81.7171 2.55966 82.0533 2.47443 82.4652 2.47443C82.8345 2.47443 83.1577 2.55019 83.4347 2.7017C83.7116 2.85085 83.9271 3.07812 84.081 3.38352C84.2348 3.68655 84.3118 4.07008 84.3118 4.53409V8H83.4737V4.59091C83.4737 4.16241 83.3625 3.8286 83.1399 3.58949C82.9174 3.34801 82.612 3.22727 82.2237 3.22727C81.9562 3.22727 81.7171 3.28527 81.5064 3.40128C81.2981 3.51728 81.1335 3.68655 81.0128 3.90909C80.892 4.13163 80.8317 4.40152 80.8317 4.71875ZM101.624 2.54545V3.25568H98.7969V2.54545H101.624ZM99.6207 1.23864H100.459V6.4375C100.459 6.67424 100.493 6.8518 100.562 6.97017C100.633 7.08617 100.723 7.1643 100.832 7.20455C100.943 7.24242 101.06 7.26136 101.183 7.26136C101.276 7.26136 101.351 7.25663 101.411 7.24716C101.47 7.23532 101.517 7.22585 101.553 7.21875L101.723 7.97159C101.666 7.9929 101.587 8.0142 101.485 8.03551C101.383 8.05919 101.254 8.07102 101.098 8.07102C100.861 8.07102 100.629 8.02012 100.402 7.91832C100.177 7.81652 99.9901 7.66146 99.8409 7.45312C99.6941 7.24479 99.6207 6.98201 99.6207 6.66477V1.23864ZM116.55 8.12784C116.204 8.12784 115.891 8.06274 115.609 7.93253C115.327 7.79995 115.103 7.60938 114.938 7.3608C114.772 7.10985 114.689 6.80682 114.689 6.4517C114.689 6.1392 114.751 5.88589 114.874 5.69176C114.997 5.49527 115.161 5.34138 115.367 5.23011C115.573 5.11884 115.801 5.03598 116.049 4.98153C116.3 4.92472 116.552 4.87973 116.806 4.84659C117.137 4.80398 117.406 4.77202 117.612 4.75071C117.82 4.72704 117.972 4.68797 118.066 4.63352C118.163 4.57907 118.212 4.48437 118.212 4.34943V4.32102C118.212 3.97064 118.116 3.69839 117.924 3.50426C117.735 3.31013 117.447 3.21307 117.061 3.21307C116.661 3.21307 116.347 3.30066 116.12 3.47585C115.893 3.65104 115.733 3.83807 115.641 4.03693L114.845 3.75284C114.987 3.4214 115.177 3.16335 115.414 2.97869C115.653 2.79167 115.913 2.66146 116.195 2.58807C116.479 2.51231 116.758 2.47443 117.033 2.47443C117.208 2.47443 117.409 2.49574 117.637 2.53835C117.866 2.5786 118.088 2.66264 118.301 2.79048C118.516 2.91832 118.695 3.11127 118.837 3.36932C118.979 3.62737 119.05 3.97301 119.05 4.40625V8H118.212V7.26136H118.169C118.112 7.37973 118.018 7.50639 117.885 7.64134C117.753 7.77628 117.576 7.8911 117.356 7.9858C117.136 8.08049 116.867 8.12784 116.55 8.12784ZM116.678 7.375C117.009 7.375 117.289 7.3099 117.516 7.17969C117.745 7.04948 117.918 6.88139 118.034 6.67543C118.153 6.46946 118.212 6.25284 118.212 6.02557V5.25852C118.176 5.30114 118.098 5.3402 117.977 5.37571C117.859 5.40885 117.722 5.43845 117.566 5.46449C117.412 5.48816 117.261 5.50947 117.115 5.52841C116.97 5.54498 116.853 5.55919 116.763 5.57102C116.545 5.59943 116.342 5.6456 116.152 5.70952C115.965 5.77107 115.814 5.86458 115.698 5.99006C115.584 6.11316 115.527 6.28125 115.527 6.49432C115.527 6.78551 115.635 7.00568 115.85 7.15483C116.068 7.30161 116.344 7.375 116.678 7.375Z" fill="#C17D2D"/>
<path d="M16.6822 8.11364C16.1708 8.11364 15.7305 7.9929 15.3612 7.75142C14.9918 7.50994 14.7077 7.17732 14.5089 6.75355C14.31 6.32978 14.2106 5.84564 14.2106 5.30114C14.2106 4.74716 14.3124 4.25829 14.516 3.83452C14.7219 3.40838 15.0084 3.07576 15.3754 2.83665C15.7447 2.59517 16.1755 2.47443 16.668 2.47443C17.0515 2.47443 17.3971 2.54545 17.7049 2.6875C18.0127 2.82955 18.2648 3.02841 18.4613 3.28409C18.6578 3.53977 18.7797 3.83807 18.8271 4.17898H17.989C17.9251 3.9304 17.783 3.71023 17.5629 3.51847C17.3451 3.32434 17.0515 3.22727 16.6822 3.22727C16.3555 3.22727 16.069 3.3125 15.8228 3.48295C15.579 3.65104 15.3884 3.88897 15.2511 4.19673C15.1161 4.50213 15.0487 4.8608 15.0487 5.27273C15.0487 5.69413 15.1149 6.06108 15.2475 6.37358C15.3825 6.68608 15.5719 6.92874 15.8157 7.10156C16.0619 7.27438 16.3507 7.3608 16.6822 7.3608C16.9 7.3608 17.0977 7.32292 17.2752 7.24716C17.4528 7.1714 17.6031 7.0625 17.7262 6.92045C17.8493 6.77841 17.9369 6.60795 17.989 6.40909H18.8271C18.7797 6.73106 18.6625 7.02107 18.4755 7.27912C18.2908 7.5348 18.0458 7.7384 17.7404 7.88991C17.4374 8.03906 17.0846 8.11364 16.6822 8.11364ZM54.0597 8.12784C53.714 8.12784 53.4003 8.06274 53.1186 7.93253C52.8369 7.79995 52.6132 7.60938 52.4474 7.3608C52.2817 7.10985 52.1989 6.80682 52.1989 6.4517C52.1989 6.1392 52.2604 5.88589 52.3835 5.69176C52.5066 5.49527 52.6712 5.34138 52.8771 5.23011C53.0831 5.11884 53.3104 5.03598 53.5589 4.98153C53.8099 4.92472 54.062 4.87973 54.3153 4.84659C54.6468 4.80398 54.9155 4.77202 55.1214 4.75071C55.3298 4.72704 55.4813 4.68797 55.576 4.63352C55.6731 4.57907 55.7216 4.48437 55.7216 4.34943V4.32102C55.7216 3.97064 55.6257 3.69839 55.4339 3.50426C55.2446 3.31013 54.9569 3.21307 54.571 3.21307C54.1709 3.21307 53.8572 3.30066 53.63 3.47585C53.4027 3.65104 53.2429 3.83807 53.1506 4.03693L52.3551 3.75284C52.4972 3.4214 52.6866 3.16335 52.9233 2.97869C53.1624 2.79167 53.4228 2.66146 53.7045 2.58807C53.9886 2.51231 54.268 2.47443 54.5426 2.47443C54.7178 2.47443 54.919 2.49574 55.1463 2.53835C55.3759 2.5786 55.5973 2.66264 55.8104 2.79048C56.0258 2.91832 56.2045 3.11127 56.3466 3.36932C56.4886 3.62737 56.5597 3.97301 56.5597 4.40625V8H55.7216V7.26136H55.679C55.6222 7.37973 55.5275 7.50639 55.3949 7.64134C55.2623 7.77628 55.0859 7.8911 54.8658 7.9858C54.6456 8.08049 54.3769 8.12784 54.0597 8.12784ZM54.1875 7.375C54.5189 7.375 54.7983 7.3099 55.0256 7.17969C55.2552 7.04948 55.428 6.88139 55.544 6.67543C55.6624 6.46946 55.7216 6.25284 55.7216 6.02557V5.25852C55.6861 5.30114 55.608 5.3402 55.4872 5.37571C55.3688 5.40885 55.2315 5.43845 55.0753 5.46449C54.9214 5.48816 54.7711 5.50947 54.6243 5.52841C54.4799 5.54498 54.3627 5.55919 54.2727 5.57102C54.0549 5.59943 53.8513 5.6456 53.6619 5.70952C53.4749 5.77107 53.3234 5.86458 53.2074 5.99006C53.0938 6.11316 53.0369 6.28125 53.0369 6.49432C53.0369 6.78551 53.1446 7.00568 53.3601 7.15483C53.5779 7.30161 53.8537 7.375 54.1875 7.375ZM105.1 8.11364C104.608 8.11364 104.176 7.99645 103.804 7.76207C103.435 7.5277 103.146 7.19981 102.938 6.77841C102.732 6.35701 102.629 5.86458 102.629 5.30114C102.629 4.73295 102.732 4.23698 102.938 3.81321C103.146 3.38944 103.435 3.06037 103.804 2.82599C104.176 2.59162 104.608 2.47443 105.1 2.47443C105.593 2.47443 106.023 2.59162 106.393 2.82599C106.764 3.06037 107.053 3.38944 107.259 3.81321C107.468 4.23698 107.572 4.73295 107.572 5.30114C107.572 5.86458 107.468 6.35701 107.259 6.77841C107.053 7.19981 106.764 7.5277 106.393 7.76207C106.023 7.99645 105.593 8.11364 105.1 8.11364ZM105.1 7.3608C105.474 7.3608 105.782 7.26491 106.023 7.07315C106.265 6.88139 106.444 6.62926 106.56 6.31676C106.676 6.00426 106.734 5.66572 106.734 5.30114C106.734 4.93655 106.676 4.59683 106.56 4.28196C106.444 3.96709 106.265 3.71259 106.023 3.51847C105.782 3.32434 105.474 3.22727 105.1 3.22727C104.726 3.22727 104.418 3.32434 104.177 3.51847C103.935 3.71259 103.757 3.96709 103.641 4.28196C103.525 4.59683 103.467 4.93655 103.467 5.30114C103.467 5.66572 103.525 6.00426 103.641 6.31676C103.757 6.62926 103.935 6.88139 104.177 7.07315C104.418 7.26491 104.726 7.3608 105.1 7.3608Z" fill="#A5AC4D"/>
<path d="M20.8335 6.01136L20.8192 4.97443H20.9897L23.3761 2.54545H24.413L21.8704 5.11648H21.7994L20.8335 6.01136ZM20.0522 8V0.727273H20.8903V8H20.0522ZM23.5181 8L21.3874 5.30114L21.984 4.71875L24.5835 8H23.5181ZM58.9274 4.71875V8H58.0893V2.54545H58.899V3.39773H58.97C59.0978 3.12074 59.292 2.8982 59.5524 2.73011C59.8128 2.55966 60.149 2.47443 60.5609 2.47443C60.9302 2.47443 61.2534 2.55019 61.5304 2.7017C61.8074 2.85085 62.0228 3.07812 62.1767 3.38352C62.3306 3.68655 62.4075 4.07008 62.4075 4.53409V8H61.5694V4.59091C61.5694 4.16241 61.4582 3.8286 61.2356 3.58949C61.0131 3.34801 60.7077 3.22727 60.3194 3.22727C60.0519 3.22727 59.8128 3.28527 59.6021 3.40128C59.3938 3.51728 59.2292 3.68655 59.1085 3.90909C58.9877 4.13163 58.9274 4.40152 58.9274 4.71875ZM89.7069 3.76705L88.954 3.98011C88.9067 3.85464 88.8368 3.73272 88.7445 3.61435C88.6545 3.49361 88.5314 3.39418 88.3752 3.31605C88.2189 3.23793 88.0189 3.19886 87.775 3.19886C87.4412 3.19886 87.1631 3.2758 86.9405 3.42969C86.7203 3.5812 86.6103 3.77415 86.6103 4.00852C86.6103 4.21686 86.686 4.38139 86.8375 4.50213C86.9891 4.62287 87.2258 4.72348 87.5478 4.80398L88.3574 5.00284C88.8451 5.12121 89.2085 5.30232 89.4476 5.54616C89.6867 5.78764 89.8063 6.09896 89.8063 6.48011C89.8063 6.79261 89.7163 7.07197 89.5364 7.31818C89.3588 7.56439 89.1103 7.75852 88.7907 7.90057C88.4711 8.04261 88.0994 8.11364 87.6756 8.11364C87.1193 8.11364 86.6588 7.9929 86.2942 7.75142C85.9296 7.50994 85.6988 7.1572 85.6017 6.69318L86.3972 6.49432C86.473 6.78788 86.6162 7.00805 86.8269 7.15483C87.04 7.30161 87.3181 7.375 87.6614 7.375C88.052 7.375 88.3622 7.29214 88.5918 7.12642C88.8238 6.95833 88.9398 6.7571 88.9398 6.52273C88.9398 6.33333 88.8735 6.17472 88.7409 6.04688C88.6084 5.91667 88.4048 5.8196 88.1301 5.75568L87.2211 5.54261C86.7215 5.42424 86.3546 5.24077 86.1202 4.99219C85.8882 4.74124 85.7722 4.42756 85.7722 4.05114C85.7722 3.74337 85.8586 3.47112 86.0314 3.23438C86.2066 2.99763 86.4445 2.81179 86.7452 2.67685C87.0482 2.5419 87.3915 2.47443 87.775 2.47443C88.3148 2.47443 88.7386 2.5928 89.0463 2.82955C89.3565 3.06629 89.5766 3.37879 89.7069 3.76705ZM108.851 8V2.54545H109.661V3.36932H109.718C109.817 3.09943 109.997 2.88045 110.257 2.71236C110.518 2.54427 110.811 2.46023 111.138 2.46023C111.2 2.46023 111.276 2.46141 111.369 2.46378C111.461 2.46615 111.531 2.4697 111.578 2.47443V3.3267C111.55 3.3196 111.485 3.30895 111.383 3.29474C111.284 3.27817 111.178 3.26989 111.067 3.26989C110.802 3.26989 110.565 3.32552 110.357 3.43679C110.151 3.54569 109.987 3.69721 109.867 3.89134C109.748 4.0831 109.689 4.30208 109.689 4.5483V8H108.851Z" fill="#4A92D5"/>
</svg>
